<svg width="16" height="16" viewBox="0 0 16 16" fill="none" xmlns="http://www.w3.org/2000/svg">
<circle cx="8" cy="8" r="8" fill="#D9B88F"/>
<path d="M4.765 12C4.735 12 4.708 11.991 4.684 11.973C4.666 11.949 4.657 11.922 4.657 11.892V5.808C4.657 5.778 4.666 5.754 4.684 5.736C4.708 5.712 4.735 5.7 4.765 5.7H5.593C5.623 5.7 5.647 5.712 5.665 5.736C5.689 5.754 5.701 5.778 5.701 5.808V8.499C5.701 8.517 5.707 8.529 5.719 8.535C5.731 8.541 5.743 8.538 5.755 8.526L8.095 5.763C8.131 5.721 8.176 5.7 8.23 5.7H9.166C9.226 5.7 9.256 5.721 9.256 5.763C9.256 5.781 9.247 5.805 9.229 5.835L7.168 8.364C7.15 8.388 7.147 8.409 7.159 8.427L9.373 11.874C9.385 11.91 9.391 11.931 9.391 11.937C9.391 11.979 9.361 12 9.301 12H8.356C8.302 12 8.26 11.976 8.23 11.928L6.448 9.156C6.424 9.12 6.403 9.117 6.385 9.147L5.719 9.921C5.707 9.945 5.701 9.966 5.701 9.984V11.892C5.701 11.922 5.689 11.949 5.665 11.973C5.647 11.991 5.623 12 5.593 12H4.765ZM10.7331 6.771C10.5471 6.771 10.3941 6.711 10.2741 6.591C10.1541 6.471 10.0941 6.318 10.0941 6.132C10.0941 5.946 10.1541 5.793 10.2741 5.673C10.3941 5.553 10.5471 5.493 10.7331 5.493C10.9191 5.493 11.0721 5.553 11.1921 5.673C11.3121 5.793 11.3721 5.946 11.3721 6.132C11.3721 6.318 11.3121 6.471 11.1921 6.591C11.0721 6.711 10.9191 6.771 10.7331 6.771ZM10.3011 12C10.2711 12 10.2441 11.991 10.2201 11.973C10.2021 11.949 10.1931 11.922 10.1931 11.892V7.5C10.1931 7.47 10.2021 7.446 10.2201 7.428C10.2441 7.404 10.2711 7.392 10.3011 7.392H11.1291C11.1591 7.392 11.1831 7.404 11.2011 7.428C11.2251 7.446 11.2371 7.47 11.2371 7.5V11.892C11.2371 11.922 11.2251 11.949 11.2011 11.973C11.1831 11.991 11.1591 12 11.1291 12H10.3011Z" fill="#594020"/>
</svg>
